{
.appVersion = "3151";
.formatVersion = 3;
customParameters = (
{
name = vendorID;
value = COMM;
},
{
name = panose;
value = (
2,
13,
2,
4,
3,
5,
2,
5,
2,
3
);
},
{
name = unicodeRanges;
value = (
0,
1,
2
);
},
{
name = codePageRanges;
value = (
"1252",
"1250",
"1254",
"1257",
"bit 29"
);
},
{
name = fsType;
value = (
2
);
},
{
name = glyphOrder;
value = (
.notdef,
Eth,
eth,
Lslash,
lslash,
Scaron,
scaron,
Yacute,
yacute,
Thorn,
thorn,
Zcaron,
zcaron,
onehalf,
onequarter,
onesuperior,
threequarters,
threesuperior,
twosuperior,
brokenbar,
minus,
multiply,
space,
exclam,
quotedbl,
numbersign,
dollar,
percent,
ampersand,
quotesingle,
parenleft,
parenright,
asterisk,
plus,
comma,
hyphen,
period,
slash,
zero,
one,
two,
three,
four,
five,
six,
seven,
eight,
nine,
colon,
semicolon,
less,
equal,
greater,
question,
at,
A,
B,
C,
D,
E,
F,
G,
H,
I,
J,
K,
L,
M,
N,
O,
P,
Q,
R,
S,
T,
U,
V,
W,
X,
Y,
Z,
bracketleft,
backslash,
bracketright,
asciicircum,
underscore,
grave,
a,
b,
c,
d,
e,
f,
g,
h,
i,
j,
k,
l,
m,
n,
o,
p,
q,
r,
s,
t,
u,
v,
w,
x,
y,
z,
braceleft,
bar,
braceright,
asciitilde,
Adieresis,
Aring,
Ccedilla,
Eacute,
Ntilde,
Odieresis,
Udieresis,
aacute,
agrave,
acircumflex,
adieresis,
atilde,
aring,
ccedilla,
eacute,
egrave,
ecircumflex,
edieresis,
iacute,
igrave,
icircumflex,
idieresis,
ntilde,
oacute,
ograve,
ocircumflex,
odieresis,
otilde,
uacute,
ugrave,
ucircumflex,
udieresis,
dagger,
degree,
cent,
sterling,
section,
bullet,
paragraph,
germandbls,
registered,
copyright,
trademark,
acute,
dieresis,
notequal,
AE,
Oslash,
infinity,
plusminus,
lessequal,
greaterequal,
yen,
mu,
partialdiff,
summation,
product,
pi,
integral,
ordfeminine,
ordmasculine,
Omega,
ae,
oslash,
questiondown,
exclamdown,
logicalnot,
radical,
florin,
approxequal,
Delta,
guillemotleft,
guillemotright,
ellipsis,
uni00A0,
Agrave,
Atilde,
Otilde,
OE,
oe,
endash,
emdash,
quotedblleft,
quotedblright,
quoteleft,
quoteright,
divide,
lozenge,
ydieresis,
Ydieresis,
fraction,
Euro,
guilsinglleft,
guilsinglright,

glyphs = (
{
glyphname = zero;
kernLeft = zero;
kernRight = zero;
lastChange = "2023-04-04 19:31:43 +0000";
layers = (
{
hints = (
{
horizontal = 1;
place = (-10, 28);
place = (-10, 28);
type = Stem;
},
{
horizontal = 1;
place = (668, 28);
place = (668, 28);
type = Stem;
},
{
place = (40, 32);
place = (40, 32);
type = Stem;
},
{
place = (503, 32);
place = (503, 32);
type = Stem;
}
);
layerId = m01;
shapes = (
{
closed = 1;
nodes = (
(139,696,o),
(40,561,o),
(40,343,cs),
(40,128,o),
(132,-10,o),
(288,-10,cs),
(444,-10,o),
(535,128,o),
(535,343,cs),
(535,565,o),
(436,696,o),
(288,696,cs)
);
},
{
closed = 1;
nodes = (
(419,668,o),
(503,544,o),
(503,343,cs),
(503,144,o),
(424,18,o),
(288,18,cs),
(153,18,o),
(72,145,o),
(72,343,cs),
(72,545,o),
(157,668,o),
(288,668,cs)
);
}
);
width = 575;
}
);
note = zero;
unicode = 48;
},
{
glyphname = one;
kernLeft = one;
kernRight = one;
lastChange = "2023-04-03 23:37:02 +0000";
layers = (
{
hints = (
{
horizontal = 1;
place = (0, 21);
target = up;
type = BottomGhost;
},
{
horizontal = 1;
place = (526, 28);
place = (526, 28);
type = Stem;
},
{
horizontal = 1;
place = (688, -20);
target = down;
type = TopGhost;
},
{
place = (186, 31);
place = (186, 31);
type = Stem;
}
);
layerId = m01;
shapes = (
{
closed = 1;
nodes = (
(180,582,o),
(134,558,o),
(34,554,c),
(34,526,l),
(77,527,o),
(158,534,o),
(186,582,c),
(186,0,l),
(217,0,l),
(217,688,l),
(192,688,l)
);
}
);
width = 301;
}
);
note = one;
unicode = 49;
},
{
glyphname = two;
kernLeft = two;
kernRight = two;
lastChange = "2023-04-03 23:40:13 +0000";
layers = (
{
hints = (
{
horizontal = 1;
place = (0, 29);
place = (0, 29);
type = Stem;
},
{
horizontal = 1;
place = (672, 28);
place = (672, 28);
type = Stem;
},
{
place = (48, 31);
place = (48, 31);
type = Stem;
},
{
place = (441, 32);
place = (441, 32);
type = Stem;
},
{
place = (31, 34);
place = (31, 34);
type = Stem;
}
);
layerId = m01;
shapes = (
{
closed = 1;
nodes = (
(79,479,l),
(80,591,o),
(147,672,o),
(265,672,cs),
(375,672,o),
(441,606,o),
(441,503,cs),
(441,391,o),
(361,353,o),
(259,297,cs),
(147,235,o),
(34,166,o),
(31,0,c),
(471,0,l),
(471,29,l),
(65,29,l),
(74,156,o),
(171,216,o),
(271,270,cs),
(376,328,o),
(473,376,o),
(473,504,cs),
(473,615,o),
(395,700,o),
(266,700,cs),
(133,700,o),
(48,606,o),
(48,479,c)
);
}
);
width = 509;
}
);
note = two;
unicode = 50;
},
{
glyphname = three;
kernLeft = three;
kernRight = three;
lastChange = "2023-04-03 23:49:45 +0000";
layers = (
{
hints = (
{
horizontal = 1;
place = (-10, 30);
place = (-10, 30);
type = Stem;
},
{
horizontal = 1;
place = (349, 28);
place = (349, 28);
type = Stem;
},
{
horizontal = 1;
place = (668, 28);
place = (668, 28);
type = Stem;
},
{
place = (22, 32);
place = (22, 32);
type = Stem;
},
{
place = (462, 32);
place = (462, 32);
type = Stem;
},
{
place = (45, 31);
place = (45, 31);
type = Stem;
},
{
place = (435, 31);
place = (435, 31);
type = Stem;
}
);
layerId = m01;
shapes = (
{
closed = 1;
nodes = (
(76,491,l),
(80,586,o),
(138,668,o),
(260,668,cs),
(362,668,o),
(435,610,o),
(435,514,cs),
(435,436,o),
(376,377,o),
(277,377,cs),
(217,377,l),
(217,349,l),
(278,349,ls),
(384,349,o),
(462,292,o),
(462,192,cs),
(462,85,o),
(386,20,o),
(266,20,cs),
(141,20,o),
(63,92,o),
(54,206,c),
(22,206,l),
(28,80,o),
(122,-10,o),
(265,-10,cs),
(401,-10,o),
(494,67,o),
(494,190,cs),
(494,282,o),
(437,343,o),
(351,364,c),
(351,366,l),
(423,386,o),
(466,441,o),
(466,515,cs),
(466,626,o),
(379,696,o),
(261,696,cs),
(120,696,o),
(49,603,o),
(45,491,c)
);
}
);
width = 526;
}
);
note = three;
unicode = 51;
},
{
glyphname = four;
kernLeft = four;
kernRight = four;
lastChange = "2023-04-04 01:08:48 +0000";
layers = (
{
hints = (
{
horizontal = 1;
place = (0, 21);
target = up;
type = BottomGhost;
},
{
horizontal = 1;
place = (188, 28);
place = (188, 28);
type = Stem;
},
{
horizontal = 1;
place = (692, -20);
target = down;
type = TopGhost;
},
{
place = (24, 35);
place = (24, 35);
type = Stem;
},
{
place = (371, 31);
place = (371, 31);
type = Stem;
},
{
horizontal = 1;
place = (638, 54);
place = (638, 54);
type = Stem;
}
);
layerId = m01;
shapes = (
{
closed = 1;
nodes = (
(24,188,l),
(371,188,l),
(371,0,l),
(402,0,l),
(402,188,l),
(510,188,l),
(510,216,l),
(402,216,l),
(402,692,l),
(373,692,l),
(24,216,l)
);
},
{
closed = 1;
nodes = (
(371,638,l),
(371,216,l),
(59,216,l)
);
}
);
width = 534;
}
);
note = four;
unicode = 52;
},
{
glyphname = five;
kernLeft = five;
kernRight = five;
lastChange = "2023-04-04 01:35:33 +0000";
layers = (
{
hints = (
{
horizontal = 1;
place = (-10, 30);
place = (-10, 30);
type = Stem;
},
{
horizontal = 1;
place = (412, 29);
place = (412, 29);
type = Stem;
},
{
horizontal = 1;
place = (657, 28);
place = (657, 28);
type = Stem;
},
{
place = (25, 31);
place = (25, 31);
type = Stem;
},
{
place = (439, 32);
place = (439, 32);
type = Stem;
}
);
layerId = m01;
shapes = (
{
closed = 1;
nodes = (
(113,685,l),
(46,327,l),
(76,327,l),
(103,370,o),
(156,412,o),
(251,412,cs),
(369,412,o),
(439,331,o),
(439,218,cs),
(439,96,o),
(359,20,o),
(248,20,cs),
(121,20,o),
(69,93,o),
(56,180,c),
(25,180,l),
(32,79,o),
(107,-10,o),
(249,-10,cs),
(376,-10,o),
(471,80,o),
(471,218,cs),
(471,351,o),
(383,441,o),
(255,441,cs),
(172,441,o),
(119,410,o),
(83,372,c),
(83,372,l),
(137,657,l),
(436,657,l),
(436,685,l)
);
}
);
width = 504;
}
);
note = five;
unicode = 53;
},
{
glyphname = six;
kernLeft = six;
kernRight = six;
lastChange = "2023-04-04 18:09:35 +0000";
layers = (
{
hints = (
{
horizontal = 1;
place = (-10, 28);
place = (-10, 28);
type = Stem;
},
{
horizontal = 1;
place = (406, 28);
place = (406, 28);
type = Stem;
},
{
horizontal = 1;
place = (668, 28);
place = (668, 28);
type = Stem;
},
{
place = (40, 31);
place = (40, 31);
type = Stem;
},
{
place = (470, 33);
place = (470, 33);
type = Stem;
},
{
place = (450, 32);
place = (450, 32);
type = Stem;
}
);
layerId = m01;
shapes = (
{
closed = 1;
nodes = (
(472,630,o),
(399,696,o),
(286,696,cs),
(129,696,o),
(40,567,o),
(40,339,cs),
(40,142,o),
(102,-10,o),
(286,-10,cs),
(405,-10,o),
(503,79,o),
(503,219,cs),
(503,345,o),
(412,434,o),
(283,434,cs),
(170,434,o),
(97,361,o),
(76,261,c),
(76,261,l),
(52,426,o),
(91,668,o),
(286,668,cs),
(379,668,o),
(441,614,o),
(450,528,c),
(482,528,l)
);
},
{
closed = 1;
nodes = (
(392,406,o),
(470,330,o),
(470,218,cs),
(470,95,o),
(385,18,o),
(285,18,cs),
(173,18,o),
(91,94,o),
(91,210,cs),
(91,313,o),
(162,406,o),
(283,406,cs)
);
}
);
width = 538;
}
);
note = six;
unicode = 54;
},
{
glyphname = seven;
kernLeft = seven;
kernRight = seven;
lastChange = "2023-04-04 01:42:18 +0000";
layers = (
{
hints = (
{
horizontal = 1;
place = (0, 21);
target = up;
type = BottomGhost;
},
{
horizontal = 1;
place = (657, 28);
place = (657, 28);
type = Stem;
},
{
place = (146, 34);
place = (146, 34);
type = Stem;
},
{
place = (438, 35);
place = (438, 35);
type = Stem;
}
);
layerId = m01;
shapes = (
{
closed = 1;
nodes = (
(23,657,l),
(438,657,l),
(263,474,o),
(158,248,o),
(146,0,c),
(180,0,l),
(193,259,o),
(294,474,o),
(473,656,c),
(473,685,l),
(23,685,l)
);
}
);
width = 489;
}
);
note = seven;
unicode = 55;
},
{
glyphname = eight;
kernLeft = eight;
kernRight = eight;
lastChange = "2023-04-04 18:15:53 +0000";
layers = (
{
hints = (
{
horizontal = 1;
place = (-10, 28);
place = (-10, 28);
type = Stem;
},
{
horizontal = 1;
place = (360, 27);
place = (360, 27);
type = Stem;
},
{
horizontal = 1;
place = (669, 27);
place = (669, 27);
type = Stem;
},
{
place = (33, 32);
place = (33, 32);
type = Stem;
},
{
place = (479, 32);
place = (479, 32);
type = Stem;
},
{
place = (70, 31);
place = (70, 31);
type = Stem;
},
{
place = (442, 32);
place = (442, 32);
type = Stem;
}
);
layerId = m01;
shapes = (
{
closed = 1;
nodes = (
(154,696,o),
(70,627,o),
(70,529,cs),
(70,455,o),
(115,399,o),
(191,376,c),
(191,374,l),
(96,351,o),
(33,287,o),
(33,190,cs),
(33,68,o),
(134,-10,o),
(274,-10,cs),
(411,-10,o),
(511,67,o),
(511,190,cs),
(511,284,o),
(446,354,o),
(351,375,c),
(351,377,l),
(426,399,o),
(474,455,o),
(474,529,cs),
(474,625,o),
(394,696,o),
(272,696,cs)
);
},
{
closed = 1;
nodes = (
(400,360,o),
(479,292,o),
(479,190,cs),
(479,90,o),
(399,18,o),
(274,18,cs),
(145,18,o),
(65,89,o),
(65,190,cs),
(65,292,o),
(144,360,o),
(271,360,cs)
);
},
{
closed = 1;
nodes = (
(377,669,o),
(442,608,o),
(442,528,cs),
(442,447,o),
(375,387,o),
(271,387,cs),
(166,387,o),
(101,448,o),
(101,528,cs),
(101,608,o),
(168,669,o),
(272,669,cs)
);
}
);
width = 544;
}
);
note = eight;
unicode = 56;
},
{
glyphname = nine;
kernLeft = nine;
kernRight = nine;
lastChange = "2023-04-04 02:05:45 +0000";
layers = (
{
hints = (
{
horizontal = 1;
place = (-10, 28);
place = (-10, 28);
type = Stem;
},
{
horizontal = 1;
place = (252, 28);
place = (252, 28);
type = Stem;
},
{
horizontal = 1;
place = (668, 28);
place = (668, 28);
type = Stem;
},
{
place = (36, 32);
place = (36, 32);
type = Stem;
},
{
place = (468, 31);
place = (468, 31);
type = Stem;
},
{
place = (49, 32);
place = (49, 32);
type = Stem;
}
);
layerId = m01;
shapes = (
{
closed = 1;
nodes = (
(369,252,o),
(444,325,o),
(463,425,c),
(479,324,o),
(484,18,o),
(255,18,cs),
(162,18,o),
(92,71,o),
(81,158,c),
(49,158,l),
(60,55,o),
(143,-10,o),
(256,-10,cs),
(440,-10,o),
(499,148,o),
(499,332,cs),
(499,540,o),
(446,696,o),
(252,696,cs),
(136,696,o),
(36,610,o),
(36,468,cs),
(36,341,o),
(129,252,o),
(255,252,cs)
);
},
{
closed = 1;
nodes = (
(145,280,o),
(68,358,o),
(68,469,cs),
(68,594,o),
(154,668,o),
(253,668,cs),
(378,668,o),
(448,581,o),
(448,475,cs),
(448,374,o),
(379,280,o),
(255,280,cs)
);
}
);
width = 536;
}
);
note = nine;
unicode = 57;
},
{
glyphname = A;
kernLeft = A;
kernRight = A;
lastChange = "2023-04-04 19:45:04 +0000";
layers = (
{
hints = (
{
horizontal = 1;
place = (0, 21);
target = up;
type = BottomGhost;
},
{
horizontal = 1;
place = (244, 27);
place = (244, 27);
type = Stem;
},
{
horizontal = 1;
place = (677, 38);
place = (677, 38);
type = Stem;
},
{
place = (8, 588);
place = (8, 588);
type = Stem;
}
);
layerId = m01;
shapes = (
{
closed = 1;
nodes = (
(8,0,l),
(41,0,l),
(135,244,l),
(469,244,l),
(563,0,l),
(596,0,l),
(320,715,l),
(284,715,l)
);
},
{
closed = 1;
nodes = (
(458,271,l),
(145,271,l),
(303,677,l)
);
}
);
width = 604;
}
);
note = A;
unicode = 65;
},
{
glyphname = B;
lastChange = "2023-04-04 19:45:07 +0000";
layers = (
{
hints = (
{
horizontal = 1;
place = (0, 29);
place = (0, 29);
type = Stem;
},
{
horizontal = 1;
place = (361, 28);
place = (361, 28);
type = Stem;
},
{
horizontal = 1;
place = (686, 29);
place = (686, 29);
type = Stem;
},
{
place = (65, 31);
place = (65, 31);
type = Stem;
},
{
place = (517, 33);
place = (517, 33);
type = Stem;
},
{
place = (548, 33);
place = (548, 33);
type = Stem;
}
);
layerId = m01;
shapes = (
{
closed = 1;
nodes = (
(65,0,l),
(358,0,ls),
(486,0,o),
(581,70,o),
(581,198,cs),
(581,292,o),
(524,355,o),
(432,378,c),
(508,403,o),
(550,458,o),
(550,536,cs),
(550,656,o),
(463,715,o),
(343,715,cs),
(65,715,l)
);
},
{
closed = 1;
nodes = (
(343,686,ls),
(445,686,o),
(517,636,o),
(517,534,cs),
(517,450,o),
(456,391,o),
(365,389,cs),
(96,389,l),
(96,686,l)
);
},
{
closed = 1;
nodes = (
(369,361,ls),
(477,359,o),
(548,297,o),
(548,199,cs),
(548,81,o),
(460,29,o),
(355,29,cs),
(96,29,l),
(96,361,l)
);
}
);
width = 608;
}
);
note = B;
unicode = 66;
},
{
glyphname = C;
kernLeft = C;
kernRight = C;
lastChange = "2023-04-04 02:16:39 +0000";
layers = (
{
hints = (
{
horizontal = 1;
place = (-11, 29);
place = (-11, 29);
type = Stem;
},
{
horizontal = 1;
place = (698, 28);
place = (698, 28);
type = Stem;
},
{
place = (37, 33);
place = (37, 33);
type = Stem;
}
);
layerId = m01;
shapes = (
{
closed = 1;
nodes = (
(611,634,o),
(515,726,o),
(361,726,cs),
(161,726,o),
(37,573,o),
(37,357,cs),
(37,136,o),
(162,-11,o),
(358,-11,cs),
(529,-11,o),
(631,108,o),
(644,256,c),
(615,256,l),
(600,126,o),
(512,18,o),
(358,18,cs),
(175,18,o),
(70,159,o),
(70,357,cs),
(70,551,o),
(173,698,o),
(361,698,cs),
(500,698,o),
(584,613,o),
(601,514,c),
(633,514,l)
);
}
);
width = 675;
}
);
note = C;
unicode = 67;
},
{
glyphname = D;
kernRight = Eth;
lastChange = "2023-04-04 19:45:10 +0000";
layers = (
{
hints = (
{
horizontal = 1;
place = (0, 28);
place = (0, 28);
type = Stem;
},
{
horizontal = 1;
place = (686, 29);
place = (686, 29);
type = Stem;
},
{
place = (65, 31);
place = (65, 31);
type = Stem;
},
{
place = (583, 33);
place = (583, 33);
type = Stem;
}
);
layerId = m01;
shapes = (
{
closed = 1;
nodes = (
(65,0,l),
(314,0,ls),
(521,0,o),
(616,154,o),
(616,354,cs),
(616,553,o),
(528,715,o),
(321,715,cs),
(65,715,l)
);
},
{
closed = 1;
nodes = (
(320,686,ls),
(493,686,o),
(583,556,o),
(583,354,cs),
(583,152,o),
(486,28,o),
(313,28,cs),
(96,28,l),
(96,686,l)
);
}
);
width = 653;
}
);
note = D;
unicode = 68;
},
{
glyphname = E;
kernRight = E;
lastChange = "2023-04-04 02:20:58 +0000";
layers = (
{
hints = (
{
horizontal = 1;
place = (0, 29);
place = (0, 29);
type = Stem;
},
{
horizontal = 1;
place = (356, 28);
place = (356, 28);
type = Stem;
},
{
horizontal = 1;
place = (687, 28);
place = (687, 28);
type = Stem;
},
{
place = (65, 31);
place = (65, 31);
type = Stem;
}
);
layerId = m01;
shapes = (
{
closed = 1;
nodes = (
(65,0,l),
(545,0,l),
(545,29,l),
(96,29,l),
(96,356,l),
(500,356,l),
(500,384,l),
(96,384,l),
(96,687,l),
(535,687,l),
(535,715,l),
(65,715,l)
);
}
);
width = 582;
}
);
note = E;
unicode = 69;
},
{
glyphname = F;
kernRight = F;
lastChange = "2023-04-04 02:21:22 +0000";
layers = (
{
hints = (
{
horizontal = 1;
place = (0, 21);
target = up;
type = BottomGhost;
},
{
horizontal = 1;
place = (359, 28);
place = (359, 28);
type = Stem;
},
{
horizontal = 1;
place = (687, 28);
place = (687, 28);
type = Stem;
},
{
place = (65, 31);
place = (65, 31);
type = Stem;
}
);
layerId = m01;
shapes = (
{
closed = 1;
nodes = (
(65,0,l),
(96,0,l),
(96,359,l),
(465,359,l),
(465,387,l),
(96,387,l),
(96,687,l),
(525,687,l),
(525,715,l),
(65,715,l)
);
}
);
width = 551;
}
);
note = F;
unicode = 70;
},
{
glyphname = G;
kernLeft = C;
kernRight = G;
lastChange = "2023-04-04 02:27:08 +0000";
layers = (
{
hints = (
{
horizontal = 1;
place = (-11, 29);
place = (-11, 29);
type = Stem;
},
{
horizontal = 1;
place = (326, 28);
place = (326, 28);
type = Stem;
},
{
horizontal = 1;
place = (698, 28);
place = (698, 28);
type = Stem;
},
{
place = (37, 33);
place = (37, 33);
type = Stem;
},
{
place = (631, 27);
place = (631, 27);
type = Stem;
},
{
horizontal = 1;
place = (0, 21);
target = up;
type = BottomGhost;
}
);
layerId = m01;
shapes = (
{
closed = 1;
nodes = (
(623,644,o),
(520,726,o),
(370,726,cs),
(154,726,o),
(37,560,o),
(37,356,cs),
(37,148,o),
(154,-11,o),
(369,-11,cs),
(518,-11,o),
(604,81,o),
(630,169,c),
(633,0,l),
(659,0,l),
(659,354,l),
(379,354,l),
(379,326,l),
(628,326,l),
(628,290,ls),
(628,133,o),
(532,18,o),
(369,18,cs),
(170,18,o),
(70,168,o),
(70,356,cs),
(70,539,o),
(169,698,o),
(370,698,cs),
(503,698,o),
(595,624,o),
(617,511,c),
(648,511,l)
);
}
);
width = 715;
}
);
note = G;
unicode = 71;
},
{
glyphname = H;
layers = (
{
hints = (
{
horizontal = 1;
place = (0, 21);
target = up;
type = BottomGhost;
},
{
horizontal = 1;
place = (367, 27);
place = (367, 27);
type = Stem;
},
{
horizontal = 1;
place = (715, -20);
target = down;
type = TopGhost;
},
{
place = (65, 31);
place = (65, 31);
type = Stem;
},
{
place = (555, 31);
place = (555, 31);
type = Stem;
}
);
layerId = m01;
shapes = (
{
closed = 1;
nodes = (
(65,0,l),
(96,0,l),
(96,367,l),
(555,367,l),
(555,0,l),
(586,0,l),
(586,715,l),
(555,715,l),
(555,394,l),
(96,394,l),
(96,715,l),
(65,715,l)
);
}
);
width = 651;
}
);
note = H;
unicode = 72;
},
{
glyphname = I;
lastChange = "2023-04-04 02:29:28 +0000";
layers = (
{
hints = (
{
horizontal = 1;
place = (0, 21);
target = up;
type = BottomGhost;
},
{
horizontal = 1;
place = (715, -20);
target = down;
type = TopGhost;
},
{
place = (68, 31);
place = (68, 31);
type = Stem;
}
);
layerId = m01;
shapes = (
{
closed = 1;
nodes = (
(68,0,l),
(99,0,l),
(99,715,l),
(68,715,l)
);
}
);
width = 167;
}
);
note = I;
unicode = 73;
},
{
glyphname = J;
kernLeft = J;
kernRight = J;
lastChange = "2023-04-04 02:32:31 +0000";
layers = (
{
hints = (
{
horizontal = 1;
place = (-12, 29);
place = (-12, 29);
type = Stem;
},
{
horizontal = 1;
place = (715, -20);
target = down;
type = TopGhost;
},
{
place = (22, 31);
place = (22, 31);
type = Stem;
},
{
place = (364, 31);
place = (364, 31);
type = Stem;
}
);
layerId = m01;
shapes = (
{
closed = 1;
nodes = (
(364,180,ls),
(364,75,o),
(314,17,o),
(215,17,cs),
(111,17,o),
(53,73,o),
(53,186,cs),
(53,211,l),
(22,211,l),
(22,185,ls),
(22,56,o),
(94,-12,o),
(215,-12,cs),
(339,-12,o),
(395,66,o),
(395,178,cs),
(395,715,l),
(364,715,l)
);
}
);
width = 454;
}
);
note = J;
unicode = 74;
},
{
glyphname = K;
kernRight = K;
lastChange = "2023-04-04 02:34:43 +0000";
layers = (
{
hints = (
{
horizontal = 1;
place = (0, 21);
target = up;
type = BottomGhost;
},
{
horizontal = 1;
place = (715, -20);
target = down;
type = TopGhost;
},
{
place = (65, 31);
place = (65, 31);
type = Stem;
}
);
layerId = m01;
shapes = (
{
closed = 1;
nodes = (
(65,0,l),
(96,0,l),
(96,258,l),
(244,399,l),
(567,0,l),
(605,0,l),
(267,421,l),
(574,715,l),
(532,715,l),
(96,297,l),
(96,715,l),
(65,715,l)
);
}
);
width = 607;
}
);
note = K;
unicode = 75;
},
{
glyphname = L;
kernRight = L;
lastChange = "2023-04-04 02:34:49 +0000";
layers = (
{
hints = (
{
horizontal = 1;
place = (0, 29);
place = (0, 29);
type = Stem;
},
{
horizontal = 1;
place = (715, -20);
target = down;
type = TopGhost;
},
{
place = (65, 31);
place = (65, 31);
type = Stem;
}
);
layerId = m01;
shapes = (
{
closed = 1;
nodes = (
(65,0,l),
(507,0,l),
(507,29,l),
(96,29,l),
(96,715,l),
(65,715,l)
);
}
);
width = 530;
}
);
note = L;
unicode = 76;
},
{
glyphname = M;
lastChange = "2023-04-04 02:44:13 +0000";
layers = (
{
hints = (
{
horizontal = 1;
place = (0, 41);
place = (0, 41);
type = Stem;
},
{
horizontal = 1;
place = (667, 48);
place = (667, 48);
type = Stem;
},
{
place = (65, 30);
place = (65, 30);
type = Stem;
},
{
place = (697, 31);
place = (697, 31);
type = Stem;
}
);
layerId = m01;
shapes = (
{
closed = 1;
nodes = (
(65,0,l),
(95,0,l),
(95,667,l),
(96,667,l),
(381,0,l),
(413,0,l),
(696,667,l),
(697,667,l),
(697,0,l),
(728,0,l),
(728,715,l),
(681,715,l),
(398,41,l),
(397,41,l),
(110,715,l),
(65,715,l)
);
}
);
width = 793;
}
);
note = M;
unicode = 77;
},
{
glyphname = N;
lastChange = "2023-04-04 02:47:57 +0000";
layers = (
{
hints = (
{
horizontal = 1;
place = (0, 21);
target = up;
type = BottomGhost;
},
{
horizontal = 1;
place = (715, -20);
target = down;
type = TopGhost;
},
{
place = (65, 30);
place = (65, 30);
type = Stem;
},
{
place = (565, 30);
place = (565, 30);
type = Stem;
},
{
horizontal = 1;
place = (0, 52);
place = (0, 52);
type = Stem;
},
{
horizontal = 1;
place = (663, 52);
place = (663, 52);
type = Stem;
}
);
layerId = m01;
shapes = (
{
closed = 1;
nodes = (
(65,0,l),
(95,0,l),
(95,663,l),
(96,663,l),
(562,0,l),
(595,0,l),
(595,715,l),
(565,715,l),
(565,52,l),
(564,52,l),
(100,715,l),
(65,715,l)
);
}
);
width = 660;
}
);
note = N;
unicode = 78;
},
{
glyphname = O;
kernLeft = C;
kernRight = O;
lastChange = "2023-04-04 19:45:15 +0000";
layers = (
{
hints = (
{
horizontal = 1;
place = (-10, 29);
place = (-10, 29);
type = Stem;
},
{
horizontal = 1;
place = (697, 29);
place = (697, 29);
type = Stem;
},
{
place = (37, 33);
place = (37, 33);
type = Stem;
},
{
place = (662, 33);
place = (662, 33);
type = Stem;
}
);
layerId = m01;
shapes = (
{
closed = 1;
nodes = (
(171,726,o),
(37,569,o),
(37,357,cs),
(37,145,o),
(171,-10,o),
(365,-10,cs),
(559,-10,o),
(695,146,o),
(695,357,cs),
(695,569,o),
(559,726,o),
(365,726,cs)
);
},
{
closed = 1;
nodes = (
(547,697,o),
(662,546,o),
(662,357,cs),
(662,169,o),
(547,19,o),
(365,19,cs),
(182,19,o),
(70,169,o),
(70,357,cs),
(70,547,o),
(182,697,o),
(365,697,cs)
);
}
);
width = 732;
}
);
note = O;
unicode = 79;
},
{
glyphname = P;
kernRight = P;
lastChange = "2023-04-04 19:45:17 +0000";
layers = (
{
hints = (
{
horizontal = 1;
place = (0, 21);
target = up;
type = BottomGhost;
},
{
horizontal = 1;
place = (327, 28);
place = (327, 28);
type = Stem;
},
{
horizontal = 1;
place = (686, 29);
place = (686, 29);
type = Stem;
},
{
place = (65, 31);
place = (65, 31);
type = Stem;
},
{
place = (512, 32);
place = (512, 32);
type = Stem;
}
);
layerId = m01;
shapes = (
{
closed = 1;
nodes = (
(65,0,l),
(96,0,l),
(96,327,l),
(319,327,ls),
(469,327,o),
(544,395,o),
(544,522,cs),
(544,648,o),
(452,715,o),
(326,715,cs),
(65,715,l)
);
},
{
closed = 1;
nodes = (
(324,686,ls),
(442,686,o),
(512,627,o),
(512,522,cs),
(512,417,o),
(454,355,o),
(317,355,cs),
(96,355,l),
(96,686,l)
);
}
);
width = 567;
}
);
note = P;
unicode = 80;
},
{
glyphname = Q;
kernLeft = C;
kernRight = Q;
lastChange = "2023-04-04 19:45:20 +0000";
layers = (
{
hints = (
{
horizontal = 1;
place = (-11, 29);
place = (-11, 29);
type = Stem;
},
{
horizontal = 1;
place = (697, 29);
place = (697, 29);
type = Stem;
},
{
place = (37, 33);
place = (37, 33);
type = Stem;
},
{
place = (662, 33);
place = (662, 33);
type = Stem;
}
);
layerId = m01;
shapes = (
{
closed = 1;
nodes = (
(171,726,o),
(37,569,o),
(37,357,cs),
(37,145,o),
(171,-11,o),
(365,-11,cs),
(435,-11,o),
(498,10,o),
(550,47,c),
(659,-42,l),
(677,-18,l),
(574,65,l),
(649,131,o),
(695,235,o),
(695,357,cs),
(695,569,o),
(559,726,o),
(365,726,cs)
);
},
{
closed = 1;
nodes = (
(547,697,o),
(662,546,o),
(662,357,cs),
(662,245,o),
(621,146,o),
(550,85,c),
(461,157,l),
(443,134,l),
(526,66,l),
(481,36,o),
(427,18,o),
(365,18,cs),
(182,18,o),
(70,169,o),
(70,357,cs),
(70,547,o),
(182,697,o),
(365,697,cs)
);
}
);
width = 732;
}
);
note = Q;
unicode = 81;
},
{
glyphname = R;
kernRight = R;
lastChange = "2023-04-04 19:45:22 +0000";
layers = (
{
hints = (
{
horizontal = 1;
place = (0, 21);
target = up;
type = BottomGhost;
},
{
horizontal = 1;
place = (333, 29);
place = (333, 29);
type = Stem;
},
{
horizontal = 1;
place = (687, 28);
place = (687, 28);
type = Stem;
},
{
place = (65, 31);
place = (65, 31);
type = Stem;
},
{
place = (529, 32);
place = (529, 32);
type = Stem;
}
);
layerId = m01;
shapes = (
{
closed = 1;
nodes = (
(65,0,l),
(96,0,l),
(96,333,l),
(351,333,ls),
(465,333,o),
(509,283,o),
(513,166,cs),
(514,132,o),
(516,104,o),
(517,83,cs),
(523,20,o),
(532,6,o),
(540,0,c),
(574,0,l),
(574,3,l),
(566,10,o),
(556,23,o),
(550,85,cs),
(548,106,o),
(546,132,o),
(545,166,cs),
(541,270,o),
(509,329,o),
(427,348,c),
(427,349,l),
(518,370,o),
(561,432,o),
(561,525,cs),
(561,647,o),
(483,715,o),
(351,715,cs),
(65,715,l)
);
},
{
closed = 1;
nodes = (
(348,687,ls),
(466,687,o),
(529,627,o),
(529,524,cs),
(529,420,o),
(467,362,o),
(340,362,cs),
(96,362,l),
(96,687,l)
);
}
);
width = 605;
}
);
note = R;
unicode = 82;
},
{
glyphname = S;
kernLeft = Scaron;
kernRight = Scaron;
lastChange = "2023-04-04 03:07:00 +0000";
layers = (
{
hints = (
{
horizontal = 1;
place = (-11, 29);
place = (-11, 29);
type = Stem;
},
{
horizontal = 1;
place = (697, 29);
place = (697, 29);
type = Stem;
},
{
place = (22, 33);
place = (22, 33);
type = Stem;
},
{
place = (518, 32);
place = (518, 32);
type = Stem;
},
{
place = (51, 32);
place = (51, 32);
type = Stem;
}
);
layerId = m01;
shapes = (
{
closed = 1;
nodes = (
(511,645,o),
(428,726,o),
(282,726,cs),
(143,726,o),
(51,656,o),
(51,548,cs),
(51,435,o),
(133,391,o),
(280,364,cs),
(446,334,o),
(518,299,o),
(518,188,cs),
(518,84,o),
(434,18,o),
(304,18,cs),
(147,18,o),
(62,101,o),
(55,227,c),
(22,227,l),
(31,91,o),
(121,-11,o),
(305,-11,cs),
(457,-11,o),
(550,71,o),
(550,190,cs),
(550,325,o),
(449,364,o),
(295,392,cs),
(150,419,o),
(83,454,o),
(83,549,cs),
(83,638,o),
(158,697,o),
(283,697,cs),
(402,697,o),
(480,634,o),
(494,525,c),
(526,525,l)
);
}
);
width = 585;
}
);
note = S;
unicode = 83;
},
{
glyphname = T;
kernLeft = T;
kernRight = T;
lastChange = "2023-04-04 03:07:37 +0000";
layers = (
{
hints = (
{
horizontal = 1;
place = (0, 21);
target = up;
type = BottomGhost;
},
{
horizontal = 1;
place = (686, 29);
place = (686, 29);
type = Stem;
},
{
place = (275, 32);
place = (275, 32);
type = Stem;
}
);
layerId = m01;
shapes = (
{
closed = 1;
nodes = (
(20,686,l),
(275,686,l),
(275,0,l),
(307,0,l),
(307,686,l),
(562,686,l),
(562,715,l),
(20,715,l)
);
}
);
width = 582;
}
);
note = T;
unicode = 84;
},
{
glyphname = U;
kernLeft = U;
kernRight = U;
lastChange = "2023-04-04 03:07:43 +0000";
layers = (
{
hints = (
{
horizontal = 1;
place = (-10, 28);
place = (-10, 28);
type = Stem;
},
{
horizontal = 1;
place = (715, -20);
target = down;
type = TopGhost;
},
{
place = (55, 32);
place = (55, 32);
type = Stem;
},
{
place = (537, 32);
place = (537, 32);
type = Stem;
}
);
layerId = m01;
shapes = (
{
closed = 1;
nodes = (
(55,231,ls),
(55,62,o),
(162,-10,o),
(311,-10,cs),
(457,-10,o),
(569,60,o),
(569,231,cs),
(569,715,l),
(537,715,l),
(537,233,ls),
(537,77,o),
(440,18,o),
(312,18,cs),
(179,18,o),
(87,77,o),
(87,233,cs),
(87,715,l),
(55,715,l)
);
}
);
width = 624;
}
);
note = U;
unicode = 85;
},
{
glyphname = V;
kernLeft = V;
kernRight = V;
lastChange = "2023-04-04 03:07:49 +0000";
layers = (
{
hints = (
{
horizontal = 1;
place = (0, 44);
place = (0, 44);
type = Stem;
},
{
horizontal = 1;
place = (715, -20);
target = down;
type = TopGhost;
},
{
place = (9, 573);
place = (9, 573);
type = Stem;
}
);
layerId = m01;
shapes = (
{
closed = 1;
nodes = (
(278,0,l),
(312,0,l),
(582,715,l),
(550,715,l),
(295,44,l),
(294,44,l),
(42,715,l),
(9,715,l)
);
}
);
width = 591;
}
);
note = V;
unicode = 86;
},
{
glyphname = W;
kernLeft = W;
kernRight = W;
lastChange = "2023-04-04 03:17:18 +0000";
layers = (
{
hints = (
{
horizontal = 1;
place = (0, 21);
target = up;
type = BottomGhost;
},
{
horizontal = 1;
place = (715, -20);
target = down;
type = TopGhost;
},
{
place = (13, 842);
place = (13, 842);
type = Stem;
},
{
horizontal = 1;
place = (0, 51);
place = (0, 51);
type = Stem;
},
{
horizontal = 1;
place = (664, 51);
place = (664, 51);
type = Stem;
}
);
layerId = m01;
shapes = (
{
closed = 1;
nodes = (
(218,0,l),
(253,0,l),
(434,664,l),
(435,664,l),
(618,0,l),
(652,0,l),
(855,715,l),
(824,715,l),
(636,51,l),
(635,51,l),
(452,715,l),
(418,715,l),
(236,52,l),
(235,52,l),
(45,715,l),
(13,715,l)
);
}
);
width = 868;
}
);
note = W;
unicode = 87;
},
{
glyphname = X;
kernLeft = X;
kernRight = X;
lastChange = "2023-04-04 04:43:55 +0000";
layers = (
{
hints = (
{
horizontal = 1;
place = (0, 21);
target = up;
type = BottomGhost;
},
{
horizontal = 1;
place = (715, -20);
target = down;
type = TopGhost;
},
{
place = (13, 550);
place = (13, 550);
type = Stem;
}
);
layerId = m01;
shapes = (
{
closed = 1;
nodes = (
(270,367,l),
(13,0,l),
(49,0,l),
(288,342,l),
(289,342,l),
(527,0,l),
(563,0,l),
(309,366,l),
(552,715,l),
(516,715,l),
(291,390,l),
(290,390,l),
(65,715,l),
(29,715,l)
);
}
);
width = 576;
}
);
note = X;
unicode = 88;
},
{
glyphname = Y;
kernLeft = Yacute;
kernRight = Yacute;
lastChange = "2023-04-04 04:45:20 +0000";
layers = (
{
hints = (
{
horizontal = 1;
place = (0, 21);
target = up;
type = BottomGhost;
},
{
horizontal = 1;
place = (715, -20);
target = down;
type = TopGhost;
},
{
place = (272, 31);
place = (272, 31);
type = Stem;
}
);
layerId = m01;
shapes = (
{
closed = 1;
nodes = (
(272,321,l),
(272,0,l),
(303,0,l),
(303,320,l),
(568,715,l),
(533,715,l),
(288,350,l),
(287,350,l),
(43,715,l),
(8,715,l)
);
}
);
width = 576;
}
);
note = Y;
unicode = 89;
},
{
glyphname = Z;
kernLeft = Zcaron;
kernRight = Zcaron;
layers = (
{
hints = (
{
horizontal = 1;
place = (0, 28);
place = (0, 28);
type = Stem;
},
{
horizontal = 1;
place = (687, 28);
place = (687, 28);
type = Stem;
},
{
place = (27, 37);
place = (27, 37);
type = Stem;
},
{
place = (497, 38);
place = (497, 38);
type = Stem;
}
);
layerId = m01;
shapes = (
{
closed = 1;
nodes = (
(53,687,l),
(497,687,l),
(497,686,l),
(27,31,l),
(27,0,l),
(555,0,l),
(555,28,l),
(64,28,l),
(64,30,l),
(535,686,l),
(535,715,l),
(53,715,l)
);
}
);
width = 588;
}
);
note = Z;
unicode = 90;
},
{
glyphname = a;
kernLeft = a;
kernRight = a;
lastChange = "2023-04-04 20:17:14 +0000";
layers = (
{
hints = (
{
horizontal = 1;
place = (-6, 25);
place = (-6, 25);
type = Stem;
},
{
horizontal = 1;
place = (499, 27);
place = (499, 27);
type = Stem;
},
{
place = (47, 31);
place = (47, 31);
type = Stem;
},
{
place = (387, 30);
place = (387, 30);
type = Stem;
},
{
horizontal = 1;
place = (-10, 26);
place = (-10, 26);
type = Stem;
},
{
place = (24, 30);
place = (24, 30);
type = Stem;
}
);
layerId = m01;
shapes = (
{
closed = 1;
nodes = (
(78,368,l),
(85,458,o),
(142,499,o),
(243,499,cs),
(339,499,o),
(387,455,o),
(387,370,cs),
(387,307,o),
(351,296,o),
(224,282,cs),
(116,269,o),
(24,243,o),
(24,130,cs),
(24,42,o),
(91,-10,o),
(189,-10,cs),
(292,-10,o),
(360,42,o),
(385,100,c),
(387,100,l),
(387,65,ls),
(387,23,o),
(404,-6,o),
(449,-6,cs),
(465,-6,o),
(478,-2,o),
(485,2,c),
(485,26,l),
(482,26,l),
(475,23,o),
(465,19,o),
(455,19,cs),
(432,19,o),
(417,30,o),
(417,68,cs),
(417,369,ls),
(417,471,o),
(358,526,o),
(243,526,cs),
(111,526,o),
(54,460,o),
(47,368,c)
);
},
{
closed = 1;
nodes = (
(387,185,ls),
(387,89,o),
(307,16,o),
(191,16,cs),
(124,16,o),
(54,46,o),
(54,129,cs),
(54,223,o),
(122,244,o),
(230,257,cs),
(321,268,o),
(362,281,o),
(387,301,c)
);
}
);
width = 490;
}
);
note = a;
unicode = 97;
},
{
glyphname = b;
kernLeft = b;
kernRight = thorn;
lastChange = "2023-04-04 19:45:29 +0000";
layers = (
{
hints = (
{
horizontal = 1;
place = (0, 21);
target = up;
type = BottomGhost;
},
{
horizontal = 1;
place = (499, 27);
place = (499, 27);
type = Stem;
},
{
horizontal = 1;
place = (715, -20);
target = down;
type = TopGhost;
},
{
place = (53, 30);
place = (53, 30);
type = Stem;
},
{
place = (467, 31);
place = (467, 31);
type = Stem;
},
{
horizontal = 1;
place = (-10, 26);
place = (-10, 26);
type = Stem;
}
);
layerId = m01;
shapes = (
{
closed = 1;
nodes = (
(53,0,l),
(83,0,l),
(83,124,l),
(84,124,l),
(115,42,o),
(183,-10,o),
(279,-10,cs),
(409,-10,o),
(498,100,o),
(498,258,cs),
(498,435,o),
(399,526,o),
(282,526,cs),
(192,526,o),
(117,476,o),
(84,384,c),
(83,384,l),
(83,715,l),
(53,715,l)
);
},
{
closed = 1;
nodes = (
(385,499,o),
(467,416,o),
(467,257,cs),
(467,116,o),
(392,16,o),
(278,16,cs),
(158,16,o),
(81,110,o),
(81,256,cs),
(81,400,o),
(159,499,o),
(277,499,cs)
);
}
);
width = 523;
}
);
note = b;
unicode = 98;
},
{
glyphname = c;
kernLeft = c;
kernRight = c;
lastChange = "2023-04-04 05:11:20 +0000";
layers = (
{
hints = (
{
horizontal = 1;
place = (-10, 27);
place = (-10, 27);
type = Stem;
},
{
horizontal = 1;
place = (499, 27);
place = (499, 27);
type = Stem;
},
{
place = (26, 30);
place = (26, 30);
type = Stem;
}
);
layerId = m01;
shapes = (
{
closed = 1;
nodes = (
(449,467,o),
(371,526,o),
(258,526,cs),
(110,526,o),
(26,408,o),
(26,259,cs),
(26,110,o),
(110,-10,o),
(258,-10,cs),
(387,-10,o),
(459,67,o),
(472,174,c),
(443,174,l),
(430,78,o),
(364,17,o),
(258,17,cs),
(136,17,o),
(56,116,o),
(56,259,cs),
(56,403,o),
(136,499,o),
(258,499,cs),
(346,499,o),
(417,459,o),
(438,364,c),
(468,364,l)
);
}
);
width = 491;
}
);
note = c;
unicode = 99;
},
{
glyphname = d;
kernLeft = d;
lastChange = "2023-04-04 19:45:30 +0000";
layers = (
{
hints = (
{
horizontal = 1;
place = (-10, 26);
place = (-10, 26);
type = Stem;
},
{
horizontal = 1;
place = (499, 27);
place = (499, 27);
type = Stem;
},
{
horizontal = 1;
place = (715, -20);
target = down;
type = TopGhost;
},
{
place = (26, 30);
place = (26, 30);
type = Stem;
},
{
place = (441, 30);
place = (441, 30);
type = Stem;
},
{
horizontal = 1;
place = (0, 21);
target = up;
type = BottomGhost;
}
);
layerId = m01;
shapes = (
{
closed = 1;
nodes = (
(441,387,l),
(440,387,l),
(408,480,o),
(333,526,o),
(245,526,cs),
(128,526,o),
(26,435,o),
(26,258,cs),
(26,100,o),
(114,-10,o),
(246,-10,cs),
(339,-10,o),
(409,40,o),
(440,125,c),
(441,125,l),
(441,0,l),
(471,0,l),
(471,715,l),
(441,715,l)
);
},
{
closed = 1;
nodes = (
(367,499,o),
(443,402,o),
(443,256,cs),
(443,107,o),
(365,16,o),
(248,16,cs),
(131,16,o),
(56,115,o),
(56,257,cs),
(56,416,o),
(140,499,o),
(249,499,cs)
);
}
);
width = 524;
}
);
note = d;
unicode = 100;
},
{
glyphname = e;
kernLeft = c;
kernRight = e;
lastChange = "2023-04-04 19:45:33 +0000";
layers = (
{
hints = (
{
horizontal = 1;
place = (-10, 27);
place = (-10, 27);
type = Stem;
},
{
horizontal = 1;
place = (260, 25);
place = (260, 25);
type = Stem;
},
{
horizontal = 1;
place = (499, 27);
place = (499, 27);
type = Stem;
},
{
place = (26, 30);
place = (26, 30);
type = Stem;
},
{
place = (444, 31);
place = (444, 31);
type = Stem;
}
);
layerId = m01;
shapes = (
{
closed = 1;
nodes = (
(472,414,o),
(399,526,o),
(257,526,cs),
(113,526,o),
(26,412,o),
(26,262,cs),
(26,105,o),
(108,-10,o),
(261,-10,cs),
(379,-10,o),
(449,62,o),
(469,152,c),
(439,152,l),
(415,67,o),
(355,17,o),
(261,17,cs),
(127,17,o),
(57,120,o),
(56,260,c),
(475,260,l)
);
},
{
closed = 1;
nodes = (
(57,285,l),
(64,415,o),
(144,499,o),
(257,499,cs),
(363,499,o),
(436,423,o),
(444,285,c)
);
}
);
width = 499;
}
);
note = e;
unicode = 101;
},
{
glyphname = f;
kernLeft = f;
kernRight = f;
lastChange = "2023-04-04 05:29:18 +0000";
layers = (
{
hints = (
{
horizontal = 1;
place = (0, 21);
target = up;
type = BottomGhost;
},
{
horizontal = 1;
place = (491, 26);
place = (491, 26);
type = Stem;
},
{
horizontal = 1;
place = (693, 27);
place = (693, 27);
type = Stem;
},
{
place = (91, 30);
place = (91, 30);
type = Stem;
}
);
layerId = m01;
shapes = (
{
closed = 1;
nodes = (
(18,491,l),
(91,491,l),
(91,0,l),
(121,0,l),
(121,491,l),
(232,491,l),
(232,517,l),
(121,517,l),
(121,614,ls),
(121,671,o),
(145,693,o),
(196,693,cs),
(208,693,o),
(220,693,o),
(232,693,c),
(232,720,l),
(220,720,o),
(207,720,o),
(195,720,cs),
(128,720,o),
(91,690,o),
(91,615,cs),
(91,517,l),
(18,517,l)
);
}
);
width = 254;
}
);
note = f;
unicode = 102;
},
{
glyphname = g;
kernLeft = g;
kernRight = g;
lastChange = "2023-04-04 19:45:35 +0000";
layers = (
{
hints = (
{
horizontal = 1;
place = (-177, 26);
place = (-177, 26);
type = Stem;
},
{
horizontal = 1;
place = (5, 26);
place = (5, 26);
type = Stem;
},
{
horizontal = 1;
place = (499, 27);
place = (499, 27);
type = Stem;
},
{
place = (26, 30);
place = (26, 30);
type = Stem;
},
{
place = (438, 30);
place = (438, 30);
type = Stem;
},
{
horizontal = 1;
place = (517, -20);
target = down;
type = TopGhost;
},
{
place = (50, 31);
place = (50, 31);
type = Stem;
}
);
layerId = m01;
shapes = (
{
closed = 1;
nodes = (
(438,388,l),
(436,388,l),
(409,467,o),
(345,526,o),
(246,526,cs),
(129,526,o),
(26,438,o),
(26,265,cs),
(26,109,o),
(114,5,o),
(246,5,cs),
(339,5,o),
(404,54,o),
(436,137,c),
(438,137,l),
(438,19,ls),
(438,-79,o),
(381,-151,o),
(254,-151,cs),
(156,-151,o),
(94,-117,o),
(81,-51,c),
(50,-51,l),
(60,-126,o),
(130,-177,o),
(255,-177,cs),
(382,-177,o),
(468,-108,o),
(468,19,cs),
(468,517,l),
(438,517,l)
);
},
{
closed = 1;
nodes = (
(367,499,o),
(440,403,o),
(440,262,cs),
(440,120,o),
(364,31,o),
(248,31,cs),
(131,31,o),
(56,126,o),
(56,264,cs),
(56,416,o),
(140,499,o),
(249,499,cs)
);
}
);
width = 521;
}
);
note = g;
unicode = 103;
},
{
glyphname = h;
kernLeft = b;
kernRight = h;
lastChange = "2023-04-04 05:35:19 +0000";
layers = (
{
hints = (
{
horizontal = 1;
place = (0, 21);
target = up;
type = BottomGhost;
},
{
horizontal = 1;
place = (498, 27);
place = (498, 27);
type = Stem;
},
{
horizontal = 1;
place = (715, -20);
target = down;
type = TopGhost;
},
{
place = (55, 30);
place = (55, 30);
type = Stem;
},
{
place = (404, 31);
place = (404, 31);
type = Stem;
}
);
layerId = m01;
shapes = (
{
closed = 1;
nodes = (
(55,0,l),
(85,0,l),
(85,347,ls),
(85,425,o),
(163,498,o),
(268,498,cs),
(352,498,o),
(404,455,o),
(404,367,cs),
(404,0,l),
(435,0,l),
(435,370,ls),
(435,462,o),
(376,525,o),
(273,525,cs),
(175,525,o),
(117,476,o),
(87,424,c),
(85,424,l),
(85,715,l),
(55,715,l)
);
}
);
width = 484;
}
);
note = h;
unicode = 104;
},
{
glyphname = i;
kernLeft = b;
lastChange = "2023-04-04 05:37:16 +0000";
layers = (
{
hints = (
{
horizontal = 1;
place = (0, 21);
target = up;
type = BottomGhost;
},
{
horizontal = 1;
place = (517, -20);
target = down;
type = TopGhost;
},
{
horizontal = 1;
place = (643, 67);
place = (643, 67);
type = Stem;
},
{
place = (54, 30);
place = (54, 30);
type = Stem;
}
);
layerId = m01;
shapes = (
{
closed = 1;
nodes = (
(54,0,l),
(84,0,l),
(84,517,l),
(54,517,l)
);
},
{
closed = 1;
nodes = (
(54,643,l),
(84,643,l),
(84,710,l),
(54,710,l)
);
}
);
width = 138;
}
);
note = i;
unicode = 105;
},
{
glyphname = j;
kernLeft = j;
kernRight = j;
lastChange = "2023-04-04 05:37:21 +0000";
layers = (
{
hints = (
{
horizontal = 1;
place = (-156, 27);
place = (-156, 27);
type = Stem;
},
{
horizontal = 1;
place = (517, -20);
target = down;
type = TopGhost;
},
{
horizontal = 1;
place = (643, 67);
place = (643, 67);
type = Stem;
},
{
place = (66, 30);
place = (66, 30);
type = Stem;
}
);
layerId = m01;
shapes = (
{
closed = 1;
nodes = (
(66,-62,ls),
(66,-107,o),
(52,-129,o),
(6,-129,cs),
(-3,-129,o),
(-13,-128,o),
(-22,-125,c),
(-22,-152,l),
(-15,-154,o),
(-1,-156,o),
(7,-156,cs),
(70,-156,o),
(96,-127,o),
(96,-62,cs),
(96,517,l),
(66,517,l)
);
},
{
closed = 1;
nodes = (
(66,643,l),
(96,643,l),
(96,710,l),
(66,710,l)
);
}
);
width = 151;
}
);
note = j;
unicode = 106;
},
{
glyphname = k;
kernLeft = b;
kernRight = k;
lastChange = "2023-04-04 05:43:51 +0000";
layers = (
{
hints = (
{
horizontal = 1;
place = (0, 21);
target = up;
type = BottomGhost;
},
{
horizontal = 1;
place = (517, -20);
target = down;
type = TopGhost;
},
{
horizontal = 1;
place = (715, -20);
target = down;
type = TopGhost;
},
{
place = (53, 30);
place = (53, 30);
type = Stem;
}
);
layerId = m01;
shapes = (
{
closed = 1;
nodes = (
(53,0,l),
(83,0,l),
(83,192,l),
(191,297,l),
(414,0,l),
(449,0,l),
(212,317,l),
(418,517,l),
(379,517,l),
(83,228,l),
(83,715,l),
(53,715,l)
);
}
);
width = 450;
}
);
note = k;
unicode = 107;
},
{
glyphname = l;
kernLeft = b;
lastChange = "2023-04-04 05:47:55 +0000";
layers = (
{
hints = (
{
horizontal = 1;
place = (0, 21);
target = up;
type = BottomGhost;
},
{
horizontal = 1;
place = (715, -20);
target = down;
type = TopGhost;
},
{
place = (56, 30);
place = (56, 30);
type = Stem;
}
);
layerId = m01;
shapes = (
{
closed = 1;
nodes = (
(56,0,l),
(86,0,l),
(86,715,l),
(56,715,l)
);
}
);
width = 142;
}
);
note = l;
unicode = 108;
},
{
glyphname = m;
kernLeft = m;
kernRight = h;
lastChange = "2023-04-04 05:49:22 +0000";
layers = (
{
hints = (
{
horizontal = 1;
place = (0, 21);
target = up;
type = BottomGhost;
},
{
horizontal = 1;
place = (498, 27);
place = (498, 27);
type = Stem;
},
{
place = (53, 30);
place = (53, 30);
type = Stem;
},
{
place = (372, 30);
place = (372, 30);
type = Stem;
},
{
place = (690, 30);
place = (690, 30);
type = Stem;
},
{
horizontal = 1;
place = (517, -20);
target = down;
type = TopGhost;
}
);
layerId = m01;
shapes = (
{
closed = 1;
nodes = (
(53,0,l),
(83,0,l),
(83,347,ls),
(83,425,o),
(151,498,o),
(247,498,cs),
(323,498,o),
(372,455,o),
(372,367,cs),
(372,0,l),
(402,0,l),
(402,347,ls),
(402,431,o),
(468,498,o),
(564,498,cs),
(643,498,o),
(690,455,o),
(690,367,cs),
(690,0,l),
(720,0,l),
(720,370,ls),
(720,462,o),
(667,525,o),
(569,525,cs),
(482,525,o),
(424,479,o),
(396,420,c),
(393,420,l),
(378,485,o),
(329,525,o),
(252,525,cs),
(162,525,o),
(114,477,o),
(85,427,c),
(83,427,l),
(83,517,l),
(53,517,l)
);
}
);
width = 770;
}
);
note = m;
unicode = 109;
},
{
glyphname = n;
kernLeft = m;
kernRight = h;
lastChange = "2023-04-04 05:49:54 +0000";
layers = (
{
hints = (
{
horizontal = 1;
place = (0, 21);
target = up;
type = BottomGhost;
},
{
horizontal = 1;
place = (517, -20);
target = down;
type = TopGhost;
},
{
place = (53, 30);
place = (53, 30);
type = Stem;
},
{
place = (402, 30);
place = (402, 30);
type = Stem;
},
{
horizontal = 1;
place = (498, 27);
place = (498, 27);
type = Stem;
}
);
layerId = m01;
shapes = (
{
closed = 1;
nodes = (
(53,0,l),
(83,0,l),
(83,347,ls),
(83,425,o),
(160,498,o),
(266,498,cs),
(350,498,o),
(402,455,o),
(402,367,cs),
(402,0,l),
(432,0,l),
(432,370,ls),
(432,462,o),
(373,525,o),
(271,525,cs),
(173,525,o),
(115,476,o),
(85,424,c),
(83,424,l),
(83,517,l),
(53,517,l)
);
}
);
width = 482;
}
);
note = n;
unicode = 110;
},
{
glyphname = o;
kernLeft = c;
kernRight = o;
lastChange = "2023-04-04 19:45:38 +0000";
layers = (
{
hints = (
{
horizontal = 1;
place = (-10, 26);
place = (-10, 26);
type = Stem;
},
{
horizontal = 1;
place = (500, 26);
place = (500, 26);
type = Stem;
},
{
place = (26, 30);
place = (26, 30);
type = Stem;
},
{
place = (465, 31);
place = (465, 31);
type = Stem;
}
);
layerId = m01;
shapes = (
{
closed = 1;
nodes = (
(114,526,o),
(26,407,o),
(26,259,cs),
(26,110,o),
(114,-10,o),
(261,-10,cs),
(409,-10,o),
(496,110,o),
(496,259,cs),
(496,408,o),
(409,526,o),
(261,526,cs)
);
},
{
closed = 1;
nodes = (
(380,500,o),
(465,404,o),
(465,259,cs),
(465,114,o),
(380,16,o),
(261,16,cs),
(142,16,o),
(56,114,o),
(56,259,cs),
(56,403,o),
(142,500,o),
(261,500,cs)
);
}
);
width = 522;
}
);
note = o;
unicode = 111;
},
{
glyphname = p;
kernLeft = p;
kernRight = thorn;
lastChange = "2023-04-04 19:45:41 +0000";
layers = (
{
hints = (
{
horizontal = 1;
place = (-166, 21);
target = up;
type = BottomGhost;
},
{
horizontal = 1;
place = (-9, 26);
place = (-9, 26);
type = Stem;
},
{
horizontal = 1;
place = (499, 27);
place = (499, 27);
type = Stem;
},
{
place = (53, 30);
place = (53, 30);
type = Stem;
},
{
place = (467, 31);
place = (467, 31);
type = Stem;
},
{
horizontal = 1;
place = (517, -20);
target = down;
type = TopGhost;
}
);
layerId = m01;
shapes = (
{
closed = 1;
nodes = (
(53,-166,l),
(83,-166,l),
(83,124,l),
(84,124,l),
(114,44,o),
(183,-9,o),
(279,-9,cs),
(409,-9,o),
(498,101,o),
(498,259,cs),
(498,436,o),
(399,526,o),
(282,526,cs),
(192,526,o),
(117,477,o),
(84,384,c),
(83,384,l),
(83,517,l),
(53,517,l)
);
},
{
closed = 1;
nodes = (
(385,499,o),
(467,417,o),
(467,258,cs),
(467,117,o),
(392,17,o),
(278,17,cs),
(158,17,o),
(81,110,o),
(81,256,cs),
(81,400,o),
(159,499,o),
(277,499,cs)
);
}
);
width = 523;
}
);
note = p;
unicode = 112;
},
{
glyphname = q;
kernLeft = d;
kernRight = q;
lastChange = "2023-04-04 19:45:43 +0000";
layers = (
{
hints = (
{
horizontal = 1;
place = (-166, 21);
target = up;
type = BottomGhost;
},
{
horizontal = 1;
place = (-9, 26);
place = (-9, 26);
type = Stem;
},
{
horizontal = 1;
place = (499, 27);
place = (499, 27);
type = Stem;
},
{
place = (27, 31);
place = (27, 31);
type = Stem;
},
{
place = (443, 30);
place = (443, 30);
type = Stem;
},
{
horizontal = 1;
place = (517, -20);
target = down;
type = TopGhost;
}
);
layerId = m01;
shapes = (
{
closed = 1;
nodes = (
(443,517,l),
(443,389,l),
(441,389,l),
(409,480,o),
(336,526,o),
(248,526,cs),
(131,526,o),
(27,435,o),
(27,258,cs),
(27,100,o),
(115,-9,o),
(248,-9,cs),
(341,-9,o),
(410,41,o),
(441,125,c),
(443,125,l),
(443,-166,l),
(473,-166,l),
(473,517,l)
);
},
{
closed = 1;
nodes = (
(369,499,o),
(445,402,o),
(445,256,cs),
(445,107,o),
(366,17,o),
(249,17,cs),
(132,17,o),
(58,115,o),
(58,257,cs),
(58,416,o),
(142,499,o),
(251,499,cs)
);
}
);
width = 526;
}
);
note = q;
unicode = 113;
},
{
glyphname = r;
kernLeft = m;
kernRight = r;
lastChange = "2023-04-04 06:01:23 +0000";
layers = (
{
hints = (
{
horizontal = 1;
place = (0, 21);
target = up;
type = BottomGhost;
},
{
horizontal = 1;
place = (488, 30);
place = (488, 30);
type = Stem;
},
{
place = (53, 30);
place = (53, 30);
type = Stem;
}
);
layerId = m01;
shapes = (
{
closed = 1;
nodes = (
(53,0,l),
(83,0,l),
(83,324,ls),
(83,396,o),
(138,475,o),
(220,487,cs),
(239,491,o),
(258,491,o),
(277,489,c),
(277,518,l),
(257,520,o),
(234,517,o),
(210,512,cs),
(159,501,o),
(112,469,o),
(85,412,c),
(83,412,l),
(83,517,l),
(53,517,l)
);
}
);
width = 294;
}
);
note = r;
unicode = 114;
},
{
glyphname = s;
kernLeft = scaron;
kernRight = scaron;
lastChange = "2023-04-04 06:04:19 +0000";
layers = (
{
hints = (
{
horizontal = 1;
place = (-10, 26);
place = (-10, 26);
type = Stem;
},
{
horizontal = 1;
place = (499, 27);
place = (499, 27);
type = Stem;
},
{
place = (20, 30);
place = (20, 30);
type = Stem;
},
{
place = (391, 30);
place = (391, 30);
type = Stem;
},
{
place = (40, 30);
place = (40, 30);
type = Stem;
}
);
layerId = m01;
shapes = (
{
closed = 1;
nodes = (
(388,462,o),
(337,526,o),
(214,526,cs),
(103,526,o),
(40,472,o),
(40,395,cs),
(40,315,o),
(100,280,o),
(225,258,cs),
(352,235,o),
(391,205,o),
(391,135,cs),
(391,63,o),
(332,16,o),
(229,16,cs),
(119,16,o),
(58,68,o),
(50,159,c),
(20,159,l),
(26,62,o),
(93,-10,o),
(229,-10,cs),
(346,-10,o),
(421,46,o),
(421,135,cs),
(421,228,o),
(361,263,o),
(235,285,cs),
(113,306,o),
(70,335,o),
(70,395,cs),
(70,454,o),
(113,499,o),
(214,499,cs),
(313,499,o),
(360,451,o),
(371,377,c),
(401,377,l)
);
}
);
width = 444;
}
);
note = s;
unicode = 115;
},
{
glyphname = t;
kernLeft = t;
kernRight = t;
lastChange = "2023-04-04 06:06:38 +0000";
layers = (
{
hints = (
{
horizontal = 1;
place = (-5, 26);
place = (-5, 26);
type = Stem;
},
{
horizontal = 1;
place = (491, 26);
place = (491, 26);
type = Stem;
},
{
place = (93, 30);
place = (93, 30);
type = Stem;
}
);
layerId = m01;
shapes = (
{
closed = 1;
nodes = (
(18,491,l),
(93,491,l),
(93,80,ls),
(93,22,o),
(122,-5,o),
(181,-5,cs),
(200,-5,o),
(221,-2,o),
(235,3,c),
(235,29,l),
(220,24,o),
(202,21,o),
(186,21,cs),
(140,21,o),
(123,40,o),
(123,82,cs),
(123,491,l),
(236,491,l),
(236,517,l),
(123,517,l),
(123,677,l),
(93,677,l),
(93,517,l),
(18,517,l)
);
}
);
width = 265;
}
);
note = t;
unicode = 116;
},
{
glyphname = u;
kernLeft = u;
kernRight = u;
lastChange = "2023-04-04 06:07:10 +0000";
layers = (
{
hints = (
{
horizontal = 1;
place = (0, 21);
target = up;
type = BottomGhost;
},
{
horizontal = 1;
place = (517, -20);
target = down;
type = TopGhost;
},
{
place = (49, 31);
place = (49, 31);
type = Stem;
},
{
place = (393, 30);
place = (393, 30);
type = Stem;
},
{
horizontal = 1;
place = (-9, 26);
place = (-9, 26);
type = Stem;
}
);
layerId = m01;
shapes = (
{
closed = 1;
nodes = (
(49,147,ls),
(49,54,o),
(108,-9,o),
(213,-9,cs),
(308,-9,o),
(362,39,o),
(391,89,c),
(393,89,l),
(393,0,l),
(423,0,l),
(423,517,l),
(393,517,l),
(393,173,ls),
(393,92,o),
(321,17,o),
(218,17,cs),
(132,17,o),
(80,61,o),
(80,150,cs),
(80,517,l),
(49,517,l)
);
}
);
width = 476;
}
);
note = u;
unicode = 117;
},
{
glyphname = v;
kernLeft = v;
kernRight = v;
lastChange = "2023-04-04 06:08:42 +0000";
layers = (
{
hints = (
{
horizontal = 1;
place = (0, 36);
place = (0, 36);
type = Stem;
},
{
horizontal = 1;
place = (517, -20);
target = down;
type = TopGhost;
},
{
place = (5, 424);
place = (5, 424);
type = Stem;
}
);
layerId = m01;
shapes = (
{
closed = 1;
nodes = (
(198,0,l),
(234,0,l),
(429,517,l),
(398,517,l),
(216,36,l),
(215,36,l),
(37,517,l),
(5,517,l)
);
}
);
width = 434;
}
);
note = v;
unicode = 118;
},
{
glyphname = w;
kernLeft = w;
kernRight = w;
lastChange = "2023-04-04 19:35:00 +0000";
layers = (
{
hints = (
{
horizontal = 1;
place = (0, 40);
place = (0, 40);
type = Stem;
},
{
horizontal = 1;
place = (471, 46);
place = (471, 46);
type = Stem;
},
{
place = (8, 678);
place = (8, 678);
type = Stem;
}
);
layerId = m01;
shapes = (
{
closed = 1;
nodes = (
(170,0,l),
(207,0,l),
(345,471,l),
(346,471,l),
(481,0,l),
(516,0,l),
(686,517,l),
(655,517,l),
(499,39,l),
(498,39,l),
(363,517,l),
(329,517,l),
(189,40,l),
(188,40,l),
(40,517,l),
(8,517,l)
);
}
);
width = 694;
}
);
note = w;
unicode = 119;
},
{
glyphname = x;
kernLeft = x;
kernRight = x;
lastChange = "2023-04-04 06:13:03 +0000";
layers = (
{
hints = (
{
horizontal = 1;
place = (0, 21);
target = up;
type = BottomGhost;
},
{
horizontal = 1;
place = (517, -20);
target = down;
type = TopGhost;
},
{
place = (7, 450);
place = (7, 450);
type = Stem;
}
);
layerId = m01;
shapes = (
{
closed = 1;
nodes = (
(213,275,l),
(7,0,l),
(43,0,l),
(231,253,l),
(232,253,l),
(420,0,l),
(457,0,l),
(250,275,l),
(429,517,l),
(393,517,l),
(231,297,l),
(231,297,l),
(68,517,l),
(31,517,l)
);
}
);
width = 464;
}
);
note = x;
unicode = 120;
},
{
glyphname = y;
kernLeft = yacute;
kernRight = yacute;
lastChange = "2023-04-04 06:18:45 +0000";
layers = (
{
hints = (
{
horizontal = 1;
place = (-169, 28);
place = (-169, 28);
type = Stem;
},
{
horizontal = 1;
place = (517, -20);
target = down;
type = TopGhost;
},
{
place = (5, 430);
place = (5, 430);
type = Stem;
},
{
horizontal = 1;
place = (-162, 21);
target = up;
type = BottomGhost;
}
);
layerId = m01;
shapes = (
{
closed = 1;
nodes = (
(208,7,l),
(201,-10,o),
(195,-27,o),
(188,-44,cs),
(156,-126,o),
(132,-141,o),
(87,-141,cs),
(67,-141,o),
(52,-138,o),
(41,-134,c),
(41,-162,l),
(52,-166,o),
(65,-169,o),
(86,-169,cs),
(148,-169,o),
(179,-148,o),
(216,-53,cs),
(435,517,l),
(403,517,l),
(224,46,l),
(223,46,l),
(37,517,l),
(5,517,l)
);
}
);
width = 440;
}
);
note = y;
unicode = 121;
},
